<svg xmlns="http://www.w3.org/2000/svg" xmlns:xlink="http://www.w3.org/1999/xlink" width="774.329" height="221.685" viewBox="0 0 774.329 221.685">
  <defs>
    <linearGradient id="linear-gradient" x1="0.5" x2="0.5" y2="1" gradientUnits="objectBoundingBox">
      <stop offset="0" stop-color="#4dd0e1"/>
      <stop offset="1" stop-color="#039be5"/>
    </linearGradient>
  </defs>
  <g id="Grupo_142565" data-name="Grupo 142565" transform="translate(-247.842 -46.939)">
    <path id="Trazado_183915" data-name="Trazado 183915" d="M348.072,249.546A100.23,100.23,0,1,1,448.3,149.316,100.346,100.346,0,0,1,348.072,249.546Zm0-195.567a95.342,95.342,0,1,0,95.347,95.337A95.449,95.449,0,0,0,348.072,53.979Z" transform="translate(0 19.077)" fill="#d1d3d4"/>
    <path id="Trazado_183916" data-name="Trazado 183916" d="M377.107,249.546a100.23,100.23,0,1,1,100.22-100.23A100.348,100.348,0,0,1,377.107,249.546Zm0-195.567a95.342,95.342,0,1,0,95.337,95.337A95.452,95.452,0,0,0,377.107,53.979Z" transform="translate(257.905 19.077)" fill="#d1d3d4"/>
    <path id="Trazado_183917" data-name="Trazado 183917" d="M406.123,249.546a100.23,100.23,0,1,1,100.23-100.23A100.34,100.34,0,0,1,406.123,249.546Zm0-195.567a95.342,95.342,0,1,0,95.347,95.337A95.45,95.45,0,0,0,406.123,53.979Z" transform="translate(515.818 19.077)" fill="#d1d3d4"/>
    <rect id="Rectángulo_37320" data-name="Rectángulo 37320" width="91.356" height="4.885" transform="translate(445.86 165.952)" fill="#d1d3d4"/>
    <rect id="Rectángulo_37321" data-name="Rectángulo 37321" width="91.355" height="4.885" transform="translate(732.794 165.952)" fill="#d1d3d4"/>
    <path id="Trazado_183918" data-name="Trazado 183918" d="M302.919,70.605a23.666,23.666,0,1,1-23.666-23.666A23.668,23.668,0,0,1,302.919,70.605Z" transform="translate(68.819 0)" fill="#ffa726"/>
    <path id="Trazado_183920" data-name="Trazado 183920" d="M331.944,70.605a23.666,23.666,0,1,1-23.666-23.666A23.662,23.662,0,0,1,331.944,70.605Z" transform="translate(326.724 0)" fill="#ffa726"/>
    <path id="Trazado_183922" data-name="Trazado 183922" d="M360.97,70.605A23.666,23.666,0,1,1,337.3,46.939,23.668,23.668,0,0,1,360.97,70.605Z" transform="translate(584.637 0)" fill="#ffa726"/>
    <g id="Grupo_142557" data-name="Grupo 142557" transform="translate(570.108 129.868)">
      <g id="Grupo_142556" data-name="Grupo 142556" transform="translate(36.679 29.761)">
        <path id="Trazado_183924" data-name="Trazado 183924" d="M366.679,58.338v46.188h-15.26l.022,4.746.015,2.545.031,6.171-3.836-2.37-1.579-.973-3.535-2.187-.749-.46-4.17-2.582-.33-.2-3.948-2.442-1.3-.8-2.339-1.447H284.152V58.338Z" transform="translate(-284.152 -58.338)" fill="url(#linear-gradient)"/>
      </g>
      <path id="Trazado_183925" data-name="Trazado 183925" d="M280.441,55.328v46.19H295.7l-.069,13.462,21.783-13.462h45.55V55.328Z" transform="translate(-280.441 -55.328)" fill="#535366"/>
      <path id="Trazado_183926" data-name="Trazado 183926" d="M291.052,61.44a4.3,4.3,0,1,1-4.3-4.29A4.3,4.3,0,0,1,291.052,61.44Z" transform="translate(-262.488 -39.137)" fill="#fff"/>
      <path id="Trazado_183927" data-name="Trazado 183927" d="M292.772,61.44a4.3,4.3,0,1,1-4.29-4.29A4.3,4.3,0,0,1,292.772,61.44Z" transform="translate(-247.214 -39.137)" fill="#fff"/>
      <path id="Trazado_183928" data-name="Trazado 183928" d="M294.468,61.44a4.3,4.3,0,1,1-4.3-4.29A4.3,4.3,0,0,1,294.468,61.44Z" transform="translate(-232.144 -39.137)" fill="#fff"/>
    </g>
    <g id="Grupo_142564" data-name="Grupo 142564" transform="translate(885.287 121.13)">
      <path id="Trazado_183929" data-name="Trazado 183929" d="M374.3,147.993l11.335-11.333V54.444H312.324v93.549Z" transform="translate(-312.324 -54.444)" fill="url(#linear-gradient)"/>
      <path id="Trazado_183930" data-name="Trazado 183930" d="M318.528,74.028V62.721l11.335-.026Z" transform="translate(-257.201 18.876)" fill="#1565c0"/>
      <g id="Grupo_142558" data-name="Grupo 142558" transform="translate(24.939 14.789)">
        <rect id="Rectángulo_37322" data-name="Rectángulo 37322" width="20.785" height="7.961" transform="translate(1.272 1.283)" fill="#fff"/>
        <path id="Trazado_183931" data-name="Trazado 183931" d="M338.177,66.458h-23.33V55.94h23.33Zm-20.789-2.551h18.239V58.5H317.388Z" transform="translate(-314.847 -55.94)" fill="#fff"/>
      </g>
      <g id="Grupo_142559" data-name="Grupo 142559" transform="translate(15.835 39.582)">
        <rect id="Rectángulo_37323" data-name="Rectángulo 37323" width="13.77" height="6.671" transform="translate(1.276 1.277)" fill="#fff"/>
        <path id="Trazado_183932" data-name="Trazado 183932" d="M330.247,67.671H313.926V58.448h16.321Zm-13.771-2.55H327.7V61.008h-11.22Z" transform="translate(-313.926 -58.448)" fill="#fff"/>
      </g>
      <g id="Grupo_142560" data-name="Grupo 142560" transform="translate(11.1 61.32)">
        <rect id="Rectángulo_37324" data-name="Rectángulo 37324" width="9.683" height="6.67" transform="translate(1.277 1.272)" fill="#fff"/>
        <path id="Trazado_183933" data-name="Trazado 183933" d="M325.686,69.86H313.447V60.647h12.239ZM316,67.31h7.137V63.2H316Z" transform="translate(-313.447 -60.647)" fill="#fff"/>
      </g>
      <g id="Grupo_142561" data-name="Grupo 142561" transform="translate(30.396 61.32)">
        <rect id="Rectángulo_37325" data-name="Rectángulo 37325" width="9.682" height="6.67" transform="translate(1.281 1.272)" fill="#fff"/>
        <path id="Trazado_183934" data-name="Trazado 183934" d="M327.638,69.86H315.4V60.647h12.239Zm-9.688-2.55h7.137V63.2H317.95Z" transform="translate(-315.399 -60.647)" fill="#fff"/>
      </g>
      <g id="Grupo_142562" data-name="Grupo 142562" transform="translate(49.703 61.311)">
        <rect id="Rectángulo_37326" data-name="Rectángulo 37326" width="9.683" height="6.67" transform="translate(1.274 1.282)" fill="#fff"/>
        <path id="Trazado_183935" data-name="Trazado 183935" d="M329.581,69.879H317.352V60.646h12.229Zm-9.688-2.56h7.137V63.206h-7.137Z" transform="translate(-317.352 -60.646)" fill="#fff"/>
      </g>
      <g id="Grupo_142563" data-name="Grupo 142563" transform="translate(41.063 39.582)">
        <rect id="Rectángulo_37327" data-name="Rectángulo 37327" width="13.663" height="6.671" transform="translate(1.275 1.277)" fill="#fff"/>
        <path id="Trazado_183936" data-name="Trazado 183936" d="M332.69,67.671H316.478V58.448H332.69Zm-13.662-2.55H330.14V61H319.028Z" transform="translate(-316.478 -58.448)" fill="#fff"/>
      </g>
      <path id="Trazado_183937" data-name="Trazado 183937" d="M342.34,66.872h-2.55V60.244H317.173v6.627h-2.55V57.686H342.34Z" transform="translate(-291.898 -25.637)" fill="#fff"/>
      <rect id="Rectángulo_37328" data-name="Rectángulo 37328" width="2.549" height="8.583" transform="translate(35.353 25.055)" fill="#fff"/>
      <rect id="Rectángulo_37329" data-name="Rectángulo 37329" width="2.549" height="10.865" transform="translate(22.725 46.251)" fill="#fff"/>
      <path id="Trazado_183938" data-name="Trazado 183938" d="M355.082,67.908h-2.548V62.584H316.486v5.323h-2.548V60.026h41.145Z" transform="translate(-297.989 -4.845)" fill="#fff"/>
      <rect id="Rectángulo_37330" data-name="Rectángulo 37330" width="2.549" height="7.882" transform="translate(35.246 55.18)" fill="#fff"/>
    </g>
    <rect id="Rectángulo_37331" data-name="Rectángulo 37331" width="92.028" height="56.475" rx="1.061" transform="translate(374.761 122.698) rotate(90)" fill="#535366"/>
    <rect id="Rectángulo_37332" data-name="Rectángulo 37332" width="64.311" height="56.475" transform="translate(374.761 133.188) rotate(90)" fill="url(#linear-gradient)"/>
    <path id="Trazado_183939" data-name="Trazado 183939" d="M270.033,67.3H259.317a2.269,2.269,0,0,1,0-4.537h10.716a2.269,2.269,0,1,1,0,4.537Z" transform="translate(81.845 140.624)" fill="#fff"/>
    <path id="Trazado_183940" data-name="Trazado 183940" d="M267.363,89.526A2.265,2.265,0,0,1,265.8,88.9l-8.818-8.373a2.272,2.272,0,0,1,3.134-3.292l6.92,6.574,18.466-25.9a2.267,2.267,0,1,1,3.688,2.639L269.212,88.577a2.252,2.252,0,0,1-1.621.939Z" transform="translate(75.015 89.01)" fill="#fff"/>
    <text id="_1" data-name="1" transform="translate(347.842 81.569)" fill="#12263f" font-size="30" font-family="Roboto-Black, Roboto" font-weight="800"><tspan x="-8.687" y="0">1</tspan></text>
    <text id="_2" data-name="2" transform="translate(634.842 81.569)" fill="#12263f" font-size="30" font-family="Roboto-Black, Roboto" font-weight="800"><tspan x="-8.687" y="0">2</tspan></text>
    <text id="_3" data-name="3" transform="translate(921.842 81.569)" fill="#12263f" font-size="30" font-family="Roboto-Black, Roboto" font-weight="800"><tspan x="-8.687" y="0">3</tspan></text>
  </g>
</svg>
